<?xml version="1.0" encoding="UTF-8"?>
<svg id="Lager_2" data-name="Lager 2" xmlns="http://www.w3.org/2000/svg" viewBox="0 0 121.01 17.86">
  <defs>
    <style>
      .cls-1 {
        fill: #1d1e20;
      }
    </style>
  </defs>
  <g id="Lager_1-2" data-name="Lager 1">
    <g>
      <path class="cls-1" d="M8.93,17.86C4,17.86,0,13.85,0,8.93S4,0,8.93,0s8.93,4,8.93,8.93-4,8.93-8.93,8.93ZM8.93,2.32c-3.65,0-6.61,2.97-6.61,6.61,0,2.05,1.06,3.75,2.41,5.1,1.93,1.93,3.08.81,4.08.81s2.11,1.4,4.3-.8c1.35-1.35,2.43-3.06,2.43-5.12,0-3.65-2.97-6.61-6.61-6.61Z"/>
      <g>
        <path class="cls-1" d="M66.92,16.87c-.48,0-.9-.05-1.25-.15v-1.76c.37.09.7.14,1,.14.46,0,.8-.14,1-.43.2-.29.3-.74.3-1.36V3.93h2.12v9.35c0,1.17-.27,2.06-.8,2.67s-1.32.92-2.37.92Z"/>
        <path class="cls-1" d="M79.38,10.09c0,1.24-.33,2.22-.98,2.92s-1.57,1.05-2.74,1.05c-.73,0-1.38-.16-1.94-.48s-.99-.78-1.29-1.38-.45-1.3-.45-2.11c0-1.25.33-2.22.98-2.91.65-.69,1.57-1.04,2.75-1.04.73,0,1.38.16,1.94.48s.99.78,1.29,1.37.45,1.3.45,2.1ZM74.1,10.09c0,.76.12,1.33.37,1.72.25.39.65.58,1.21.58s.96-.19,1.2-.58c.24-.39.37-.96.37-1.72s-.12-1.32-.37-1.7-.65-.57-1.21-.57-.96.19-1.2.56-.37.94-.37,1.71Z"/>
        <path class="cls-1" d="M86.52,13.93l-.28-.98h-.11c-.22.36-.54.63-.95.82s-.88.29-1.4.29c-.9,0-1.57-.24-2.03-.72-.46-.48-.68-1.17-.68-2.07v-4.98h2.08v4.46c0,.55.1.96.29,1.24.2.28.51.41.94.41.58,0,1-.19,1.26-.58s.39-1.04.39-1.94v-3.6h2.08v7.64h-1.6Z"/>
        <path class="cls-1" d="M94.57,6.14c.28,0,.52.02.7.06l-.16,1.96c-.17-.05-.37-.07-.62-.07-.67,0-1.18.17-1.55.51-.37.34-.56.82-.56,1.44v3.89h-2.08v-7.64h1.58l.31,1.29h.1c.24-.43.56-.77.96-1.04.4-.26.84-.39,1.32-.39Z"/>
        <path class="cls-1" d="M103.72,13.93h-2.08v-4.46c0-.55-.1-.96-.29-1.24s-.51-.41-.94-.41c-.58,0-1,.19-1.26.58s-.39,1.04-.39,1.94v3.6h-2.08v-7.64h1.59l.28.98h.12c.23-.37.55-.65.96-.84.41-.19.87-.28,1.39-.28.89,0,1.56.24,2.02.72s.69,1.17.69,2.08v4.98Z"/>
        <path class="cls-1" d="M109.33,14.06c-1.23,0-2.19-.34-2.88-1.02s-1.04-1.64-1.04-2.88.32-2.27.96-2.97c.64-.7,1.53-1.05,2.66-1.05s1.92.31,2.52.92.9,1.47.9,2.55v1.01h-4.93c.02.59.2,1.06.53,1.39s.79.5,1.38.5c.46,0,.9-.05,1.31-.14s.84-.25,1.29-.46v1.61c-.36.18-.75.32-1.17.41s-.92.13-1.52.13ZM109.03,7.62c-.44,0-.79.14-1.04.42s-.39.68-.43,1.19h2.93c0-.52-.14-.91-.4-1.19s-.61-.42-1.05-.42Z"/>
        <path class="cls-1" d="M113.04,6.28h2.28l1.44,4.3c.12.37.21.82.25,1.33h.04c.05-.47.15-.91.29-1.33l1.42-4.3h2.24l-3.23,8.62c-.3.8-.72,1.39-1.27,1.79-.55.4-1.19.59-1.92.59-.36,0-.71-.04-1.06-.12v-1.65c.25.06.52.09.82.09.37,0,.69-.11.97-.34.28-.23.49-.57.65-1.02l.12-.38-3.04-7.59Z"/>
      </g>
      <g>
        <path class="cls-1" d="M25.27,13.93V3.93h1.16v9.99h-1.16Z"/>
        <path class="cls-1" d="M35.42,13.93v-4.85c0-.61-.14-1.07-.42-1.37s-.71-.45-1.31-.45c-.78,0-1.36.21-1.72.64s-.55,1.12-.55,2.1v3.93h-1.13v-7.49h.92l.18,1.03h.05c.23-.37.56-.66.98-.86s.89-.3,1.4-.3c.9,0,1.58.22,2.04.65s.68,1.13.68,2.09v4.89h-1.13Z"/>
        <path class="cls-1" d="M45.3,13.93v-4.85c0-.61-.14-1.07-.42-1.37s-.71-.45-1.31-.45c-.78,0-1.36.21-1.72.64s-.55,1.12-.55,2.1v3.93h-1.13v-7.49h.92l.18,1.03h.05c.23-.37.56-.66.98-.86s.89-.3,1.4-.3c.9,0,1.58.22,2.04.65s.68,1.13.68,2.09v4.89h-1.13Z"/>
        <path class="cls-1" d="M53.22,14.06c-1.11,0-1.98-.34-2.62-1.01-.64-.67-.96-1.61-.96-2.81s.3-2.17.89-2.88c.6-.71,1.39-1.07,2.4-1.07.94,0,1.68.31,2.23.93s.82,1.43.82,2.44v.72h-5.16c.02.88.25,1.55.67,2,.42.46,1.01.68,1.78.68.81,0,1.6-.17,2.39-.51v1.01c-.4.17-.78.3-1.14.37-.36.08-.79.11-1.3.11ZM52.91,7.25c-.6,0-1.08.2-1.44.59-.36.39-.57.93-.63,1.63h3.92c0-.72-.16-1.26-.48-1.64s-.77-.57-1.37-.57Z"/>
        <path class="cls-1" d="M62.62,6.3c.33,0,.63.03.9.08l-.16,1.05c-.31-.07-.58-.1-.82-.1-.61,0-1.12.25-1.55.74-.43.49-.65,1.1-.65,1.84v4.02h-1.13v-7.49h.94l.13,1.39h.05c.28-.49.61-.86,1-1.13s.82-.4,1.29-.4Z"/>
      </g>
    </g>
  </g>
</svg>