<svg width="176" height="23" viewBox="0 0 176 23" fill="none" xmlns="http://www.w3.org/2000/svg">
<path d="M78.6004 22.2597C77.736 22.2597 76.9797 22.1737 76.3495 22.0015V18.9716C77.0157 19.1265 77.61 19.2126 78.1502 19.2126C78.9785 19.2126 79.5907 18.9716 79.9509 18.4723C80.311 17.9731 80.4911 17.1984 80.4911 16.131V0H84.3086V16.0966C84.3086 18.1108 83.8224 19.643 82.868 20.6931C81.9136 21.7433 80.4911 22.2769 78.6004 22.2769V22.2597Z" fill="#1D1E20"/>
<path d="M101.037 10.6048C101.037 12.7395 100.443 14.4266 99.2723 15.6317C98.1019 16.8368 96.4452 17.4394 94.3384 17.4394C93.0239 17.4394 91.8535 17.1639 90.8451 16.613C89.8367 16.0621 89.0624 15.2702 88.5222 14.2373C87.982 13.2043 87.7119 11.9992 87.7119 10.6048C87.7119 8.45283 88.3061 6.78292 89.4765 5.59505C90.647 4.40717 92.3036 3.80463 94.4284 3.80463C95.743 3.80463 96.9134 4.08008 97.9218 4.63097C98.9302 5.18187 99.7045 5.97379 100.245 6.98951C100.785 8.00523 101.055 9.22753 101.055 10.6048H101.037ZM91.5293 10.6048C91.5293 11.9132 91.7454 12.8944 92.1956 13.5659C92.6458 14.2373 93.366 14.5644 94.3744 14.5644C95.3828 14.5644 96.1031 14.2373 96.5353 13.5659C96.9674 12.8944 97.2015 11.9132 97.2015 10.6048C97.2015 9.29639 96.9854 8.33232 96.5353 7.67813C96.0851 7.02394 95.3648 6.69684 94.3564 6.69684C93.348 6.69684 92.6278 7.02394 92.1956 7.66091C91.7634 8.29789 91.5293 9.27918 91.5293 10.6048Z" fill="#1D1E20"/>
<path d="M113.894 17.1984L113.39 15.5112H113.192C112.796 16.131 112.219 16.5958 111.481 16.9229C110.743 17.25 109.896 17.4222 108.96 17.4222C107.339 17.4222 106.133 17.009 105.305 16.1826C104.476 15.3563 104.08 14.1684 104.08 12.619V4.04566H107.826V11.7238C107.826 12.6707 108.006 13.3765 108.348 13.8585C108.708 14.3406 109.266 14.5644 110.041 14.5644C111.085 14.5644 111.841 14.2373 112.309 13.5659C112.778 12.8945 113.012 11.7754 113.012 10.226V4.02844H116.757V17.1811H113.876L113.894 17.1984Z" fill="#1D1E20"/>
<path d="M128.39 3.80463C128.894 3.80463 129.326 3.83906 129.65 3.90792L129.362 7.28217C129.056 7.19609 128.696 7.16166 128.246 7.16166C127.039 7.16166 126.121 7.45433 125.454 8.03966C124.788 8.62499 124.446 9.45133 124.446 10.5187V17.2156H120.701V4.04564H123.546L124.104 6.26645H124.284C124.716 5.52618 125.292 4.94085 126.013 4.47603C126.733 4.02843 127.525 3.80463 128.39 3.80463Z" fill="#1D1E20"/>
<path d="M144.866 17.1983H141.121V9.5202C141.121 8.57334 140.94 7.8675 140.598 7.38546C140.256 6.90343 139.68 6.67963 138.906 6.67963C137.861 6.67963 137.105 7.00672 136.637 7.67813C136.169 8.34954 135.935 9.46855 135.935 11.018V17.2156H132.189V4.04564H135.052L135.556 5.73277H135.772C136.187 5.09579 136.763 4.61376 137.501 4.28666C138.239 3.95957 139.068 3.80463 140.004 3.80463C141.607 3.80463 142.813 4.2178 143.642 5.04415C144.47 5.87049 144.884 7.05837 144.884 8.62499V17.1983H144.866Z" fill="#1D1E20"/>
<path d="M154.95 17.4394C152.735 17.4394 151.006 16.854 149.764 15.6834C148.521 14.5127 147.891 12.86 147.891 10.7253C147.891 8.59055 148.467 6.81735 149.62 5.61226C150.772 4.40717 152.375 3.80463 154.41 3.80463C156.444 3.80463 157.867 4.33831 158.947 5.38846C160.028 6.43861 160.568 7.91915 160.568 9.77843V11.5172H151.691C151.727 12.5329 152.051 13.3421 152.645 13.9102C153.239 14.4783 154.068 14.7709 155.13 14.7709C155.958 14.7709 156.751 14.6849 157.489 14.5299C158.227 14.375 159.001 14.0995 159.812 13.738V16.5097C159.163 16.8196 158.461 17.0606 157.705 17.2156C156.949 17.3705 156.048 17.4394 154.968 17.4394H154.95ZM154.428 6.35253C153.635 6.35253 153.005 6.59355 152.555 7.07558C152.105 7.55762 151.853 8.24624 151.781 9.12424H157.057C157.057 8.22903 156.805 7.55762 156.336 7.07558C155.868 6.59355 155.238 6.35253 154.446 6.35253H154.428Z" fill="#1D1E20"/>
<path d="M161.648 4.04566H165.754L168.347 11.4484C168.563 12.0853 168.725 12.86 168.797 13.738H168.869C168.959 12.9289 169.139 12.1714 169.391 11.4484L171.948 4.04566H175.982L170.166 18.8855C169.626 20.2627 168.869 21.2784 167.879 21.9671C166.888 22.6557 165.736 22.9828 164.422 22.9828C163.773 22.9828 163.143 22.9139 162.513 22.7762V19.9356C162.963 20.0389 163.449 20.0906 163.989 20.0906C164.656 20.0906 165.232 19.9012 165.736 19.5052C166.24 19.1093 166.618 18.524 166.906 17.7493L167.123 17.0951L161.648 4.02844V4.04566Z" fill="#1D1E20"/>
<path d="M0 17.1984V0H2.08881V17.1984H0Z" fill="#1D1E20"/>
<path d="M18.2771 17.1983V8.84879C18.2771 7.79864 18.025 7.00673 17.5208 6.49026C17.0166 5.97379 16.2423 5.71556 15.1619 5.71556C13.7573 5.71556 12.7129 6.07708 12.0647 6.81735C11.4164 7.55762 11.0743 8.7455 11.0743 10.4326V17.1983H9.03949V4.30388H10.6961L11.0203 6.07708H11.1103C11.5245 5.44011 12.1187 4.94086 12.875 4.59655C13.6313 4.25223 14.4776 4.08008 15.3959 4.08008C17.0166 4.08008 18.241 4.45882 19.0694 5.19909C19.8977 5.93936 20.2938 7.14445 20.2938 8.79714V17.2156H18.2591L18.2771 17.1983Z" fill="#1D1E20"/>
<path d="M36.068 17.1983V8.84879C36.068 7.79864 35.8159 7.00673 35.3117 6.49026C34.8075 5.97379 34.0332 5.71556 32.9527 5.71556C31.5482 5.71556 30.5038 6.07708 29.8556 6.81735C29.2073 7.55762 28.8652 8.7455 28.8652 10.4326V17.1983H26.8304V4.30388H28.487L28.8111 6.07708H28.9012C29.3153 5.44011 29.9096 4.94086 30.6659 4.59655C31.4222 4.25223 32.2685 4.08008 33.1868 4.08008C34.8075 4.08008 36.0319 4.45882 36.8603 5.19909C37.6886 5.93936 38.0847 7.14445 38.0847 8.79714V17.2156H36.0499L36.068 17.1983Z" fill="#1D1E20"/>
<path d="M50.3294 17.4394C48.3307 17.4394 46.764 16.854 45.6116 15.7006C44.4592 14.5471 43.8829 12.9289 43.8829 10.863C43.8829 8.79715 44.4231 7.12724 45.4856 5.90493C46.566 4.68263 47.9885 4.06287 49.8072 4.06287C51.4999 4.06287 52.8324 4.59655 53.8228 5.66391C54.8132 6.73128 55.2993 8.12574 55.2993 9.86451V11.104H46.0078C46.0438 12.619 46.4579 13.7724 47.2142 14.5471C47.9705 15.3391 49.0329 15.7178 50.4195 15.7178C51.878 15.7178 53.3006 15.4251 54.7231 14.8398V16.5786C54.0028 16.8713 53.3186 17.0951 52.6703 17.2156C52.0221 17.3533 51.2478 17.4049 50.3294 17.4049V17.4394ZM49.7712 5.71556C48.6908 5.71556 47.8265 6.05987 47.1782 6.73128C46.53 7.40269 46.1518 8.33233 46.0438 9.53742H53.1025C53.1025 8.2979 52.8144 7.36826 52.2382 6.71406C51.6619 6.05987 50.8516 5.73278 49.7712 5.73278V5.71556Z" fill="#1D1E20"/>
<path d="M67.238 4.08008C67.8322 4.08008 68.3724 4.13173 68.8586 4.21781L68.5705 6.02544C68.0123 5.90493 67.5261 5.85329 67.0939 5.85329C65.9955 5.85329 65.0771 6.28367 64.3028 7.12724C63.5285 7.9708 63.1324 9.02095 63.1324 10.2949V17.2156H61.0976V4.30388H62.7902L63.0243 6.69685H63.1144C63.6186 5.85329 64.2128 5.21631 64.9151 4.75149C65.6173 4.28667 66.3916 4.06287 67.238 4.06287V4.08008Z" fill="#1D1E20"/>
</svg>
