<svg width="74" height="74" viewBox="0 0 74 74" fill="none" xmlns="http://www.w3.org/2000/svg">
<g clip-path="url(#clip0_3_5)">
<path d="M37.0145 74C16.5867 74 0 57.4133 0 37.0145C0 16.6158 16.5867 0 37.0145 0C57.4424 0 74.0291 16.5867 74.0291 37.0145C74.0291 57.4424 57.4424 74.0291 37.0145 74.0291V74ZM37.0145 9.60283C21.8828 9.60283 9.60283 21.8828 9.60283 37.0145C9.60283 45.5116 13.9969 52.5537 19.584 58.1408C27.5863 66.1431 32.3586 61.5163 36.4908 61.5163C40.6229 61.5163 45.2206 67.3071 54.3287 58.2281C59.9449 52.6119 64.3972 45.5698 64.3972 37.0145C64.3972 21.9119 52.1172 9.60283 36.9855 9.60283H37.0145Z" fill="#1D1E20"/>
</g>
<defs>
<clipPath id="clip0_3_5">
<rect width="74" height="74" fill="white"/>
</clipPath>
</defs>
</svg>
