<svg width="167" height="39" viewBox="0 0 167 39" fill="none" xmlns="http://www.w3.org/2000/svg">
<g clip-path="url(#clip0_1_93)">
<path d="M19.6144 39C8.78947 39 0 30.2584 0 19.5077C0 8.75698 8.78947 0 19.6144 0C30.4393 0 39.2288 8.74164 39.2288 19.5077C39.2288 30.2737 30.4393 39.0153 19.6144 39.0153V39ZM19.6144 5.06095C11.5959 5.06095 5.08864 11.5328 5.08864 19.5077C5.08864 23.9858 7.41708 27.6972 10.3777 30.6418C14.6183 34.8592 17.1472 32.4208 19.3368 32.4208C21.5265 32.4208 23.9629 35.4727 28.7894 30.6878C31.7655 27.7279 34.1247 24.0165 34.1247 19.5077C34.1247 11.5482 27.6175 5.06095 19.599 5.06095H19.6144Z" fill="white"/>
<path d="M47.8641 35.2273C46.8155 35.2273 45.8903 35.12 45.1039 34.9053V31.0405C45.9057 31.2399 46.6459 31.3473 47.309 31.3473C48.3267 31.3473 49.0669 31.0252 49.514 30.3964C49.9612 29.7676 50.1771 28.7708 50.1771 27.4212V6.88599H54.8494V27.3752C54.8494 29.9363 54.2634 31.884 53.0915 33.2183C51.9196 34.5525 50.1771 35.2273 47.8795 35.2273H47.8641Z" fill="white"/>
<path d="M75.3119 20.3819C75.3119 23.1117 74.5872 25.2435 73.1377 26.7771C71.6882 28.3107 69.6836 29.0775 67.093 29.0775C65.4739 29.0775 64.0552 28.7248 62.8216 28.0193C61.588 27.3139 60.6319 26.3017 59.9689 24.9827C59.3058 23.6638 58.982 22.1302 58.982 20.3665C58.982 17.6367 59.7067 15.505 61.1408 13.9867C62.5749 12.4684 64.5949 11.7169 67.2009 11.7169C68.82 11.7169 70.2387 12.0697 71.4723 12.7598C72.7059 13.4499 73.662 14.4621 74.325 15.7657C74.9881 17.0693 75.3119 18.6029 75.3119 20.3665V20.3819ZM63.6697 20.3819C63.6697 22.0382 63.9473 23.2958 64.487 24.1393C65.0267 24.9827 65.9211 25.4122 67.1547 25.4122C68.3883 25.4122 69.2672 24.9981 69.7915 24.1393C70.3158 23.2804 70.5933 22.0382 70.5933 20.3665C70.5933 18.6949 70.3158 17.468 69.7761 16.6398C69.2364 15.8117 68.342 15.3976 67.1084 15.3976C65.8748 15.3976 64.9958 15.8117 64.4561 16.6398C63.9164 17.468 63.6389 18.7102 63.6389 20.3819H63.6697Z" fill="white"/>
<path d="M91.0404 28.7861L90.4236 26.6391H90.1769C89.6835 27.4212 88.9896 28.0193 88.0798 28.4487C87.17 28.8781 86.1523 29.0929 84.9957 29.0929C83.022 29.0929 81.5262 28.5714 80.5239 27.5132C79.5216 26.455 79.0127 24.9521 79.0127 22.9737V12.0543H83.6079V21.8388C83.6079 23.0504 83.8238 23.9552 84.2556 24.5533C84.6873 25.1515 85.3658 25.4582 86.3219 25.4582C87.6017 25.4582 88.5424 25.0288 89.1129 24.1853C89.6835 23.3418 89.9764 21.9155 89.9764 19.9371V12.0543H94.5717V28.8015H91.0404V28.7861Z" fill="white"/>
<path d="M108.774 11.7169C109.39 11.7169 109.915 11.7629 110.331 11.8549L109.992 16.1338C109.622 16.0417 109.175 15.9804 108.635 15.9804C107.17 15.9804 106.029 16.3485 105.212 17.0999C104.394 17.8514 103.978 18.8943 103.978 20.2439V28.7708H99.3827V12.039H102.868L103.546 14.8608H103.777C104.302 13.9253 105.011 13.1739 105.89 12.5911C106.769 12.0083 107.74 11.7323 108.789 11.7323L108.774 11.7169Z" fill="white"/>
<path d="M128.928 28.7861H124.332V19.0016C124.332 17.7901 124.117 16.8852 123.685 16.2871C123.253 15.689 122.559 15.3823 121.619 15.3823C120.339 15.3823 119.398 15.8117 118.828 16.6552C118.257 17.4987 117.964 18.9249 117.964 20.9033V28.7861H113.369V12.039H116.885L117.501 14.1861H117.764C118.272 13.3732 118.982 12.7598 119.876 12.3457C120.77 11.9316 121.804 11.7169 122.945 11.7169C124.903 11.7169 126.383 12.2384 127.401 13.2965C128.419 14.3547 128.928 15.873 128.928 17.8514V28.7708V28.7861Z" fill="white"/>
<path d="M141.264 29.0775C138.55 29.0775 136.437 28.3414 134.911 26.8384C133.384 25.3355 132.629 23.2498 132.629 20.5199C132.629 17.7901 133.338 15.551 134.741 14.0174C136.144 12.4837 138.103 11.7169 140.585 11.7169C143.068 11.7169 144.81 12.3917 146.137 13.7413C147.463 15.0909 148.126 16.9466 148.126 19.3237V21.5474H137.27C137.316 22.851 137.702 23.8632 138.426 24.584C139.151 25.3048 140.169 25.6729 141.464 25.6729C142.482 25.6729 143.438 25.5655 144.348 25.3508C145.258 25.1361 146.198 24.814 147.185 24.354V27.8813C146.383 28.28 145.52 28.5714 144.61 28.7708C143.7 28.9702 142.575 29.0622 141.264 29.0622V29.0775ZM140.616 14.9682C139.645 14.9682 138.874 15.2749 138.334 15.8884C137.794 16.5018 137.47 17.376 137.378 18.4955H143.824C143.808 17.3606 143.5 16.5018 142.929 15.8884C142.359 15.2749 141.588 14.9682 140.616 14.9682Z" fill="white"/>
<path d="M149.467 12.0389H154.494L157.671 21.4554C157.948 22.2682 158.133 23.2497 158.226 24.3539H158.318C158.426 23.3264 158.642 22.3602 158.966 21.4554L162.081 12.0389H167L159.876 30.9178C159.228 32.6662 158.288 33.9697 157.085 34.8439C155.882 35.7181 154.463 36.1475 152.844 36.1475C152.058 36.1475 151.271 36.0555 150.516 35.8868V32.2674C151.071 32.3901 151.672 32.4668 152.32 32.4668C153.137 32.4668 153.847 32.2214 154.448 31.7306C155.049 31.2399 155.527 30.4884 155.867 29.4916L156.144 28.6634L149.452 12.0389H149.467Z" fill="white"/>
</g>
<defs>
<clipPath id="clip0_1_93">
<rect width="167" height="39" fill="white"/>
</clipPath>
</defs>
</svg>
