<svg width="187" height="28" viewBox="0 0 187 28" fill="none" xmlns="http://www.w3.org/2000/svg">
<path d="M13.7998 28C6.18131 28 0 21.7133 0 14C0 6.28667 6.18131 0 13.7998 0C21.4182 0 27.5995 6.271 27.5995 14C27.5995 21.729 21.4182 28 13.7998 28ZM13.7998 3.63718C8.15933 3.63718 3.58516 8.29339 3.58516 14C3.58516 17.2139 5.2232 19.8791 7.3094 21.9955C10.2919 25.0213 12.069 23.2654 13.6143 23.2654C15.1597 23.2654 16.875 25.4602 20.2592 22.0112C22.3454 19.8947 24.0144 17.2139 24.0144 13.9843C24.0144 8.26204 19.4248 3.6215 13.7998 3.6215V3.63718Z" fill="#FAF9F7"/>
<path d="M103.413 26.4479C102.672 26.4479 102.022 26.3695 101.482 26.2128V23.4535C102.053 23.5946 102.563 23.673 103.027 23.673C103.738 23.673 104.263 23.4535 104.572 22.9989C104.881 22.5442 105.036 21.8387 105.036 20.8667V6.16125H108.312V20.8197C108.312 22.654 107.895 24.0493 107.076 25.0056C106.257 25.9619 105.036 26.4479 103.413 26.4479Z" fill="#FAF9F7"/>
<path d="M122.668 15.8186C122.668 17.7626 122.158 19.299 121.154 20.3964C120.149 21.4938 118.728 22.0426 116.919 22.0426C115.791 22.0426 114.787 21.7917 113.922 21.29C113.056 20.7884 112.392 20.0672 111.928 19.1265C111.464 18.1859 111.233 17.0885 111.233 15.8186C111.233 13.8589 111.743 12.3382 112.747 11.2564C113.752 10.1747 115.173 9.62598 116.997 9.62598C118.125 9.62598 119.129 9.87682 119.995 10.3785C120.86 10.8802 121.525 11.6013 121.988 12.5263C122.452 13.4513 122.684 14.5644 122.684 15.8186H122.668ZM114.509 15.8186C114.509 17.0101 114.694 17.9037 115.081 18.5151C115.467 19.1265 116.085 19.4244 116.95 19.4244C117.816 19.4244 118.434 19.1265 118.805 18.5151C119.176 17.9037 119.377 17.0101 119.377 15.8186C119.377 14.6271 119.191 13.7492 118.805 13.1534C118.418 12.5577 117.8 12.2598 116.935 12.2598C116.07 12.2598 115.451 12.5577 115.081 13.1377C114.71 13.7178 114.509 14.6114 114.509 15.8186Z" fill="#FAF9F7"/>
<path d="M133.702 21.8387L133.269 20.3023H133.099C132.759 20.8667 132.265 21.29 131.631 21.5879C130.997 21.8858 130.271 22.0425 129.467 22.0425C128.077 22.0425 127.041 21.6663 126.33 20.9138C125.62 20.1612 125.28 19.0795 125.28 17.6685V9.86114H128.494V16.8533C128.494 17.7156 128.648 18.3583 128.942 18.7973C129.251 19.2363 129.73 19.4401 130.395 19.4401C131.291 19.4401 131.94 19.1422 132.342 18.5308C132.744 17.9194 132.944 16.9003 132.944 15.4894V9.84546H136.159V21.8231H133.686L133.702 21.8387Z" fill="#FAF9F7"/>
<path d="M146.142 9.62598C146.574 9.62598 146.945 9.65733 147.223 9.72004L146.976 12.7928C146.713 12.7144 146.404 12.6831 146.018 12.6831C144.983 12.6831 144.194 12.9496 143.623 13.4826C143.051 14.0157 142.757 14.7682 142.757 15.7402V21.8387H139.543V9.86114H141.985L142.464 11.8835H142.618C142.989 11.2094 143.484 10.6764 144.102 10.2531C144.72 9.84546 145.4 9.64165 146.142 9.64165V9.62598Z" fill="#FAF9F7"/>
<path d="M160.281 21.8388H157.067V14.8466C157.067 13.9843 156.913 13.3416 156.619 12.9026C156.325 12.4636 155.831 12.2598 155.166 12.2598C154.27 12.2598 153.621 12.5577 153.219 13.1691C152.817 13.7805 152.617 14.7996 152.617 16.2105V21.8544H149.402V9.87683H151.859L152.292 11.4132H152.477C152.833 10.8332 153.327 10.3942 153.961 10.0963C154.595 9.79845 155.305 9.65735 156.109 9.65735C157.484 9.65735 158.52 10.0336 159.231 10.7861C159.941 11.5386 160.297 12.6204 160.297 14.047V21.8544L160.281 21.8388Z" fill="#FAF9F7"/>
<path d="M168.951 22.0426C167.05 22.0426 165.566 21.5095 164.5 20.4434C163.434 19.3774 162.893 17.8723 162.893 15.9283C162.893 13.9843 163.387 12.3695 164.376 11.2721C165.365 10.1747 166.741 9.62598 168.487 9.62598C170.233 9.62598 171.454 10.112 172.381 11.0683C173.308 12.0246 173.772 13.3729 173.772 15.0661V16.6495H166.154C166.184 17.5745 166.463 18.3113 166.973 18.8287C167.483 19.346 168.193 19.6125 169.105 19.6125C169.816 19.6125 170.496 19.5342 171.13 19.3931C171.763 19.252 172.428 19.0011 173.123 18.6719V21.196C172.567 21.4782 171.964 21.6976 171.315 21.8387C170.666 21.9798 169.893 22.0426 168.966 22.0426H168.951ZM168.487 11.9462C167.807 11.9462 167.266 12.1657 166.88 12.6047C166.494 13.0437 166.277 13.6708 166.215 14.4703H170.743C170.743 13.6551 170.527 13.0437 170.125 12.6047C169.723 12.1657 169.182 11.9462 168.502 11.9462H168.487Z" fill="#FAF9F7"/>
<path d="M174.684 9.84545H178.207L180.432 16.5868C180.618 17.1668 180.757 17.8723 180.819 18.6719H180.881C180.958 17.935 181.112 17.2452 181.329 16.5868L183.523 9.84545H186.985L181.993 23.3594C181.53 24.6136 180.881 25.5386 180.031 26.1657C179.181 26.7928 178.192 27.0907 177.064 27.0907C176.507 27.0907 175.966 27.028 175.426 26.9026V24.3158C175.812 24.4098 176.229 24.4569 176.693 24.4569C177.264 24.4569 177.759 24.2844 178.192 23.9238C178.624 23.5633 178.949 23.0302 179.196 22.3247L179.382 21.729L174.684 9.82977V9.84545Z" fill="#FAF9F7"/>
<path d="M39.0504 21.8387V6.16125H40.843V21.8231H39.0504V21.8387Z" fill="#FAF9F7"/>
<path d="M54.7355 21.8388V14.2352C54.7355 13.2789 54.5191 12.5577 54.0864 12.0874C53.6537 11.617 52.9893 11.3819 52.0621 11.3819C50.8567 11.3819 49.9604 11.7111 49.4041 12.3852C48.8478 13.0594 48.5542 14.1411 48.5542 15.6775V21.8388H46.808V10.0963H48.2297L48.5078 11.7111H48.5851C48.9405 11.131 49.4505 10.6764 50.0995 10.3628C50.7485 10.0493 51.4748 9.89252 52.263 9.89252C53.6537 9.89252 54.7046 10.2374 55.4154 10.9116C56.1263 11.5857 56.4662 12.6831 56.4662 14.1881V21.8544H54.72L54.7355 21.8388Z" fill="#FAF9F7"/>
<path d="M70.0033 21.8388V14.2352C70.0033 13.2789 69.787 12.5577 69.3543 12.0874C68.9216 11.617 68.2571 11.3819 67.3299 11.3819C66.1245 11.3819 65.2282 11.7111 64.6719 12.3852C64.1156 13.0594 63.822 14.1411 63.822 15.6775V21.8388H62.0758V10.0963H63.4975L63.7756 11.7111H63.8529C64.2083 11.131 64.7183 10.6764 65.3673 10.3628C66.0164 10.0493 66.7427 9.89252 67.5308 9.89252C68.9216 9.89252 69.9724 10.2374 70.6833 10.9116C71.3941 11.5857 71.7341 12.6831 71.7341 14.1881V21.8544H69.9879L70.0033 21.8388Z" fill="#FAF9F7"/>
<path d="M82.2423 22.0426C80.527 22.0426 79.1825 21.5095 78.1935 20.4591C77.2045 19.4087 76.71 17.9351 76.71 16.0538C76.71 14.1725 77.1736 12.6517 78.0854 11.5386C79.0126 10.4255 80.2334 9.86115 81.7941 9.86115C83.2468 9.86115 84.3903 10.3471 85.2402 11.3192C86.0902 12.2912 86.5074 13.561 86.5074 15.1445V16.2732H78.5335C78.5644 17.6529 78.9198 18.7033 79.5689 19.4087C80.2179 20.1299 81.1297 20.4748 82.3196 20.4748C83.5713 20.4748 84.7921 20.2083 86.0129 19.6753V21.2587C85.3948 21.5252 84.8075 21.729 84.2512 21.8387C83.6949 21.9642 83.0304 22.0112 82.2423 22.0112V22.0426ZM81.7632 11.3662C80.836 11.3662 80.0943 11.6797 79.538 12.2912C78.9817 12.9026 78.6571 13.7492 78.5644 14.8466H84.6221C84.6221 13.7178 84.3748 12.8712 83.8803 12.2755C83.3858 11.6797 82.6904 11.3819 81.7632 11.3819V11.3662Z" fill="#FAF9F7"/>
<path d="M96.7683 9.87683C97.2783 9.87683 97.7419 9.92386 98.1591 10.0023L97.9119 11.6484C97.4328 11.5386 97.0156 11.4916 96.6447 11.4916C95.7021 11.4916 94.914 11.8835 94.2495 12.6517C93.585 13.4199 93.245 14.3763 93.245 15.5364V21.8388H91.4988V10.0963H92.9514L93.1523 12.2755H93.2295C93.6622 11.5073 94.1722 10.9272 94.7749 10.5039C95.3776 10.0806 96.042 9.87683 96.7683 9.87683Z" fill="#FAF9F7"/>
</svg>
